# xmcd
#
# Track frame offsets:
#	150
#	10470
#	22607
#	34161
#	47223
#	58749
#	69396
#	80201
#	89895
#	104827
#	116884
#
# Disc length: 1730 seconds
#
# Revision: 0
# Processed by: cddbd v1.5.1PL2 Copyright (c) Steve Scherf et al.
# Submitted via: dBpowerAMP V4.0
#
DISCID=9e06c00b
DTITLE=Don Williams - Follow Me Back To Louisville
DYEAR=2004
DGENRE=Country
TTITLE0=Always Something There To Remind Me
TTITLE1=Coming Apart
TTITLE2=Follow Me Back To Louisville
TTITLE3=Ruby Tuesday
TTITLE4=On Her Way To Being A Woman
TTITLE5=Spend Some Time With Me
TTITLE6=Storybook Children
TTITLE7=Take My Hand For Awhile
TTITLE8=Tears
TTITLE9=Theres Never Been A Time
TTITLE10=Where Do We Go From Here
EXTD=
EXTT0=
EXTT1=
EXTT2=
EXTT3=
EXTT4=
EXTT5=
EXTT6=
EXTT7=
EXTT8=
EXTT9=
EXTT10=
PLAYORDER=
